<?xml version="1.0" encoding="utf-8"?>
<!-- Generator: Adobe Illustrator 22.0.0, SVG Export Plug-In . SVG Version: 6.00 Build 0)  -->
<svg version="1.1" id="Layer_1" xmlns="http://www.w3.org/2000/svg" xmlns:xlink="http://www.w3.org/1999/xlink" x="0px" y="0px"
	 viewBox="0 0 80 80" style="enable-background:new 0 0 80 80;" xml:space="preserve">
<style type="text/css">
	.st0{fill:#082618;}
	.st1{fill:#C5A131;}
</style>
<path class="st0" d="M65.5,80H14.9C6.7,80,0,73.3,0,65.1V14.5C0,6.3,6.7-0.4,14.9-0.4h50.7c8.2,0,14.9,6.7,14.9,14.9v50.7
	C80.4,73.3,73.7,80,65.5,80z"/>
<path class="st1" d="M35.6,14.8c-10.4,2.1-18.2,11.3-18.2,22.3c0,6.1,2.4,11.7,6.4,15.8l16.4,16.5l16.4-16.5
	c3.9-4.1,6.4-9.7,6.4-15.8c0-12.1-9.4-21.9-21.3-22.7v8.9c0,0,0,0,0,0h0v4.6l2.7-4c5.5,1.8,9.4,6.9,9.4,13c0,3.7-1.4,7-3.8,9.4l0,0
	l-9.9,9.9l-9.9-9.9l0,0c-2.4-2.5-3.8-5.8-3.8-9.4c0-7,5.3-12.8,12.1-13.6v-8.9c0,0,0,0,0,0v-4.2L35.6,14.8L35.6,14.8z"/>
</svg>
