<svg id="Layer_1" data-name="Layer 1" xmlns="http://www.w3.org/2000/svg" xmlns:xlink="http://www.w3.org/1999/xlink" viewBox="0 0 97 97"><defs><style>.cls-1{fill:none;}.cls-2{fill:#c4a130;}.cls-3{fill:#f2f2f2;}.cls-4{fill:url(#CC);}</style><pattern id="CC" data-name="CC" width="97.5" height="97.19" patternTransform="translate(-49 -76.29)" patternUnits="userSpaceOnUse" viewBox="0 0 97.5 97.19"><rect class="cls-1" width="97.5" height="97.19"/><path class="cls-2" d="M108.51,85.15a15.38,15.38,0,0,0-10.06-26l-.21,0V69l2.07-3.1a8.88,8.88,0,0,1,3.52,14.56l-6.41,6.44-6.29-6.28v0L91,80.48a8.89,8.89,0,0,1,5.41-15l.18,0V59h0V55.9l-2.36,3.55a15.38,15.38,0,0,0-7.91,25.7L97.42,96.29Zm-12.31-20a9.28,9.28,0,0,0-5.61,15.5l0,0,6.85,6.84,6.71-6.7.13-.16h0a9.29,9.29,0,0,0-4-15.13l-.15,0-1.5,2.26V65.29h0V59.56a15,15,0,0,1,9.59,25.31L97.42,95.72,86.62,84.88A15,15,0,0,1,94.4,59.82l.08,0,1.72-2.59Z"/><path class="cls-2" d="M85.46,108.36,96.6,97.27,85.46,86.18a15.38,15.38,0,0,0-26,10.06l0,.21h9.89l-3.1-2.07a8.88,8.88,0,0,1,14.56-3.52l6.44,6.41-6.29,6.29h0l-.14.13a8.89,8.89,0,0,1-15-5.41l0-.18H56.21l3.54,2.36a15.38,15.38,0,0,0,25.71,7.91Zm-20-9.87a9.28,9.28,0,0,0,15.5,5.61v0l6.85-6.85-6.7-6.71-.16-.12h0a9.29,9.29,0,0,0-15.13,4l0,.15L68,96.05H65.6v0H59.87a15,15,0,0,1,25.31-9.59L96,97.27l-10.85,10.8a15,15,0,0,1-25.05-7.78l0-.08-2.58-1.72Z"/><path class="cls-2" d="M11,85.15A15.29,15.29,0,0,0,15.3,74.49,15.4,15.4,0,0,0,1,59.15l-.21,0V69l2.07-3.1a8.85,8.85,0,0,1,6,8.4,8.83,8.83,0,0,1-2.48,6.16L-.08,86.92l-6.29-6.28v0l-.13-.14A8.83,8.83,0,0,1-9,74.32a8.87,8.87,0,0,1,7.89-8.83l.18,0V59h0V55.9l-2.36,3.55a15.41,15.41,0,0,0-12.2,15,15.29,15.29,0,0,0,4.29,10.66L-.08,96.29Zm-12.31-20a9.27,9.27,0,0,0-8.07,9.2,9.24,9.24,0,0,0,2.46,6.3l0,0,6.85,6.84,6.71-6.7.13-.16h0a9.24,9.24,0,0,0,2.46-6.3,9.27,9.27,0,0,0-6.42-8.83l-.15,0L1.14,67.7V65.29h0V59.56A15,15,0,0,1,14.91,74.49a14.92,14.92,0,0,1-4.18,10.38L-.08,95.72l-10.8-10.84a14.92,14.92,0,0,1-4.18-10.39,15,15,0,0,1,12-14.67l.08,0,1.72-2.59Z"/><path class="cls-2" d="M38,98.14l0-.21H28.17l3.1,2.07a8.88,8.88,0,0,1-14.56,3.52l-6.44-6.41,6.29-6.29v0l.14-.14a8.89,8.89,0,0,1,15,5.41l0,.18h9.57l-3.54-2.36A15.38,15.38,0,0,0,12,86L.9,97.11,12,108.2A15.38,15.38,0,0,0,38,98.14ZM12.32,86.31a15,15,0,0,1,25,7.78l0,.08L40,95.89H32.07a9.28,9.28,0,0,0-15.5-5.61v0L9.71,97.11l6.7,6.71.16.12h0a9.29,9.29,0,0,0,15.13-4l.05-.14-2.26-1.51H31.9v0h5.73a15,15,0,0,1-25.31,9.59L1.47,97.11Z"/><path class="cls-2" d="M85.46,11.17,96.6.08,85.46-11A15.29,15.29,0,0,0,74.8-15.3,15.4,15.4,0,0,0,59.46-.95l0,.21h9.89l-3.1-2.07a8.85,8.85,0,0,1,8.4-6,8.83,8.83,0,0,1,6.16,2.48L87.23.08,80.94,6.37h0l-.14.13A8.83,8.83,0,0,1,74.63,9,8.87,8.87,0,0,1,65.8,1.08l0-.18H56.21l3.54,2.36a15.43,15.43,0,0,0,15,12.2A15.29,15.29,0,0,0,85.46,11.17Zm-20-9.87a9.27,9.27,0,0,0,9.2,8.07,9.24,9.24,0,0,0,6.3-2.46v0L87.79.08l-6.7-6.71-.16-.12h0a9.24,9.24,0,0,0-6.3-2.46A9.27,9.27,0,0,0,65.8-2.79l0,.15L68-1.14H65.6v0H59.87A15,15,0,0,1,74.8-14.91a14.92,14.92,0,0,1,10.38,4.18L96,.08,85.18,10.88A14.88,14.88,0,0,1,74.8,15.06a15,15,0,0,1-14.67-12l0-.08L57.52,1.3Z"/><path class="cls-2" d="M100.76,37.75A15.38,15.38,0,0,0,108.67,12L97.58.9,86.49,12A15.38,15.38,0,0,0,96.55,38l.21,0V28.17l-2.07,3.1a8.88,8.88,0,0,1-3.52-14.56l6.41-6.44,6.29,6.29h0l.13.14a8.89,8.89,0,0,1-5.41,15l-.18,0v6.45h0v3.12Zm-2-5.68a9.28,9.28,0,0,0,5.61-15.5h0L97.58,9.71l-6.71,6.7-.13.16h0a9.29,9.29,0,0,0,4,15.13l.15.05,1.5-2.26V31.9h0v5.73a15,15,0,0,1-9.59-25.31L97.58,1.47l10.8,10.84a15,15,0,0,1-7.78,25.06l-.08,0L98.8,40V37.65h0Z"/><path class="cls-2" d="M59.76,36.56a15.39,15.39,0,0,0-10.06-26h-.21v9.88l2.07-3.1a8.89,8.89,0,0,1,3.52,14.57l-6.41,6.44L42.38,32h0l-.13-.14a8.9,8.9,0,0,1,5.41-15l.18,0V10.43h0V7.3l-2.36,3.55a15.38,15.38,0,0,0-7.91,25.71L48.67,47.69Zm-12.31-20A9.28,9.28,0,0,0,41.84,32l0,0,6.85,6.85,6.71-6.71.13-.15h0a9.28,9.28,0,0,0-4-15.12l-.15,0-1.5,2.26V16.7h0V11a15,15,0,0,1,9.59,25.32L48.67,47.13,37.87,36.28a15,15,0,0,1,7.78-25.06l.08,0,1.72-2.59Z"/><path class="cls-2" d="M36.71,59.76,47.85,48.67,36.71,37.58a15.38,15.38,0,0,0-26,10.06l0,.21h9.89l-3.1-2.06A8.88,8.88,0,0,1,32,42.26l6.44,6.41L32.19,55h0l-.14.14a8.89,8.89,0,0,1-15-5.42l0-.17H7.46L11,51.86a15.38,15.38,0,0,0,25.71,7.9Zm-20-9.87a9.28,9.28,0,0,0,15.5,5.61v0L39,48.67,32.34,42l-.16-.13h0a9.3,9.3,0,0,0-15.13,4L17,46l2.26,1.51H16.85v0H11.12a15,15,0,0,1,25.31-9.59l10.85,10.8L36.43,59.48a15,15,0,0,1-25-7.78l0-.08L8.77,49.89Z"/><path class="cls-2" d="M52,86.34a15.38,15.38,0,0,0,7.91-25.71L48.83,49.5,37.74,60.63a15.39,15.39,0,0,0,10.06,26H48V76.77l-2.07,3.1A8.89,8.89,0,0,1,42.42,65.3l6.41-6.44,6.29,6.29h0l.13.14a8.9,8.9,0,0,1-5.41,15l-.18,0v6.44h0v3.13Zm-2-5.67a9.28,9.28,0,0,0,5.61-15.5l0,0L48.83,58.3,42.12,65l-.13.15h0a9.28,9.28,0,0,0,4,15.12l.15,0,1.5-2.26v2.41h0v5.74A15,15,0,0,1,38,60.91L48.83,50.06l10.8,10.85A15,15,0,0,1,51.85,86l-.08,0-1.72,2.59V86.24h0Z"/><path class="cls-2" d="M86.79,49.55l0-.21H76.92L80,51.4a8.88,8.88,0,0,1-14.56,3.53L59,48.52l6.29-6.29h0l.14-.13a8.88,8.88,0,0,1,15,5.41l0,.18H90L86.5,45.33a15.38,15.38,0,0,0-25.71-7.9L49.65,48.52,60.79,59.61a15.38,15.38,0,0,0,26-10.06ZM61.07,37.71a15,15,0,0,1,25.05,7.78l0,.08,2.58,1.73H80.82a9.28,9.28,0,0,0-15.5-5.61v0l-6.85,6.85,6.7,6.7.16.13h0a9.3,9.3,0,0,0,15.13-4l0-.14-2.26-1.5h2.41v0h5.73a15,15,0,0,1-25.31,9.59L50.22,48.52Z"/><path class="cls-2" d="M3.26,37.75a15.43,15.43,0,0,0,12.2-15A15.29,15.29,0,0,0,11.17,12L.08.9-11,12A15.29,15.29,0,0,0-15.3,22.7,15.4,15.4,0,0,0-.95,38l.21,0V28.17l-2.07,3.1a8.85,8.85,0,0,1-6-8.4,8.83,8.83,0,0,1,2.48-6.16L.08,10.27l6.29,6.29h0l.13.14A8.83,8.83,0,0,1,9,22.87,8.87,8.87,0,0,1,1.08,31.7l-.18,0v6.45h0v3.12Zm-2-5.68a9.27,9.27,0,0,0,8.07-9.2,9.24,9.24,0,0,0-2.46-6.3h0L.08,9.71l-6.71,6.7-.13.16h0a9.24,9.24,0,0,0-2.46,6.3A9.26,9.26,0,0,0-2.79,31.7l.15.05,1.5-2.26V31.9h0v5.73A15,15,0,0,1-14.91,22.7a14.92,14.92,0,0,1,4.18-10.38L.08,1.47l10.8,10.84A14.92,14.92,0,0,1,15.06,22.7a15,15,0,0,1-12,14.67L3,37.4,1.3,40V37.65h0Z"/><path class="cls-2" d="M38,1l0-.21H28.17l3.1,2.07a8.85,8.85,0,0,1-8.4,6,8.83,8.83,0,0,1-6.16-2.48L10.27-.08l6.29-6.29h0l.14-.13A8.83,8.83,0,0,1,22.87-9,8.87,8.87,0,0,1,31.7-1.08l0,.18h9.57L37.75-3.26a15.43,15.43,0,0,0-15-12.2A15.29,15.29,0,0,0,12-11.17L.9-.08,12,11A15.29,15.29,0,0,0,22.7,15.3,15.4,15.4,0,0,0,38,1ZM12.32-10.88A14.88,14.88,0,0,1,22.7-15.06a15,15,0,0,1,14.67,12l0,.08L40-1.3H32.07a9.27,9.27,0,0,0-9.2-8.07,9.24,9.24,0,0,0-6.3,2.46v0L9.71-.08l6.7,6.71.16.12h0a9.24,9.24,0,0,0,6.3,2.46A9.27,9.27,0,0,0,31.7,2.79l.05-.15-2.26-1.5H31.9v0h5.73A15,15,0,0,1,22.7,14.91a14.92,14.92,0,0,1-10.38-4.18L1.47-.08Z"/></pattern></defs><title>studio</title><rect class="cls-3" width="97" height="97" rx="19.17" ry="19.17"/><rect class="cls-4" width="97" height="97" rx="19.17" ry="19.17"/></svg>