<?xml version="1.0" encoding="utf-8"?>
<!-- Generator: Adobe Illustrator 22.0.0, SVG Export Plug-In . SVG Version: 6.00 Build 0)  -->
<svg version="1.1" id="Layer_1" xmlns="http://www.w3.org/2000/svg" xmlns:xlink="http://www.w3.org/1999/xlink" x="0px" y="0px"
	 viewBox="0 0 906 510.5" style="enable-background:new 0 0 906 510.5;" xml:space="preserve">
<style type="text/css">
	.st0{fill:#2F2E41;}
	.st1{fill:#E6E6E6;}
	.st2{fill:#F2F2F2;}
	.st3{fill:#CCCCCC;}
	.st4{fill:#A0616A;}
	.st5{fill:#6E00B3;}
	.st6{fill:#3F3D56;}
	.st7{fill:#FFFFFF;}
	.st8{fill:#FFB8B8;}
</style>
<path class="st0" d="M437.5,235.9c15.5,0,28,12.5,28,28c0,15.5-21.4,33.2-33.8,23.9c-16.5-12.4-22.2-8.4-22.2-23.9
	C409.5,248.5,422.1,235.9,437.5,235.9z"/>
<path class="st1" d="M636.1,163.2c1.2-13.3,4.6-26.3,10.1-38.5c1.5-3.4,3.2-6.7,5-10c0.2-0.4,0.1-0.8-0.3-1c-0.3-0.2-0.8-0.1-1,0.3
	c-6.6,11.8-11.3,24.7-13.8,38c-0.7,3.7-1.2,7.5-1.6,11.2C634.5,164.1,636,164.1,636.1,163.2z"/>
<circle class="st1" cx="654.8" cy="107.7" r="9.4"/>
<path class="st1" d="M637,163.4c0.8-8.6,3-17.1,6.6-25c1-2.2,2.1-4.4,3.3-6.5c0.1-0.2,0-0.5-0.2-0.7c-0.2-0.1-0.5,0-0.6,0.2
	c-4.3,7.7-7.3,16-8.9,24.6c-0.4,2.4-0.8,4.8-1,7.3C636,164,637,164,637,163.4z"/>
<circle class="st1" cx="649.2" cy="127.4" r="6.1"/>
<path class="st1" d="M635.8,162.8c-4.7-7.3-8.1-15.3-10.2-23.7c-0.6-2.3-1-4.7-1.4-7.1c0-0.3-0.3-0.4-0.6-0.4
	c-0.3,0-0.4,0.3-0.4,0.5c1.3,8.7,4.1,17.1,8.1,24.9c1.1,2.2,2.4,4.3,3.7,6.4C635.4,164,636.2,163.4,635.8,162.8z"/>
<circle class="st1" cx="623.3" cy="127" r="6.1"/>
<path class="st2" d="M617.1,168.3v-12c0-2.5,2-4.5,4.5-4.5h28c2.5,0,4.5,2,4.5,4.5v12c0,2.5-2,4.5-4.5,4.5h-28
	C619.1,172.7,617.1,170.7,617.1,168.3z"/>
<path class="st2" d="M648.6,91.8h-12c-2.5,0-4.5-2-4.5-4.5v-49c0-2.5,2-4.5,4.5-4.5h12c2.5,0,4.5,2,4.5,4.5v49
	C653.1,89.7,651.1,91.7,648.6,91.8z"/>
<rect x="632.6" y="43.3" class="st3" width="20" height="4"/>
<rect x="632.6" y="74.3" class="st3" width="20" height="4"/>
<path class="st2" d="M678.6,91.8h-12c-2.5,0-4.5-2-4.5-4.5v-49c0-2.5,2-4.5,4.5-4.5h12c2.5,0,4.5,2,4.5,4.5v49
	C683.1,89.7,681.1,91.7,678.6,91.8z"/>
<rect x="662.6" y="43.3" class="st3" width="20" height="4"/>
<rect x="662.6" y="74.3" class="st3" width="20" height="4"/>
<path class="st2" d="M708.6,91.8h-12c-2.5,0-4.5-2-4.5-4.5v-49c0-2.5,2-4.5,4.5-4.5h12c2.5,0,4.5,2,4.5,4.5v49
	C713.1,89.7,711.1,91.7,708.6,91.8z"/>
<rect x="692.6" y="43.3" class="st3" width="20" height="4"/>
<rect x="692.6" y="74.3" class="st3" width="20" height="4"/>
<path class="st2" d="M724.6,172.8h-12c-2.5,0-4.5-2-4.5-4.5v-49c0-2.5,2-4.5,4.5-4.5h12c2.5,0,4.5,2,4.5,4.5v49
	C729.1,170.7,727.1,172.7,724.6,172.8z"/>
<rect x="708.6" y="124.3" class="st3" width="20" height="4"/>
<rect x="708.6" y="155.3" class="st3" width="20" height="4"/>
<path class="st2" d="M754.6,172.8h-12c-2.5,0-4.5-2-4.5-4.5v-49c0-2.5,2-4.5,4.5-4.5h12c2.5,0,4.5,2,4.5,4.5v49
	C759.1,170.7,757.1,172.7,754.6,172.8z"/>
<rect x="738.6" y="124.3" class="st3" width="20" height="4"/>
<rect x="738.6" y="155.3" class="st3" width="20" height="4"/>
<path class="st2" d="M784.6,172.8h-12c-2.5,0-4.5-2-4.5-4.5v-49c0-2.5,2-4.5,4.5-4.5h12c2.5,0,4.5,2,4.5,4.5v49
	C789.1,170.7,787.1,172.7,784.6,172.8z"/>
<rect x="768.6" y="124.3" class="st3" width="20" height="4"/>
<rect x="768.6" y="155.3" class="st3" width="20" height="4"/>
<path class="st2" d="M645.6,253.8h-12c-2.5,0-4.5-2-4.5-4.5v-49c0-2.5,2-4.5,4.5-4.5h12c2.5,0,4.5,2,4.5,4.5v49
	C650.1,251.7,648.1,253.7,645.6,253.8z"/>
<rect x="629.6" y="205.3" class="st3" width="20" height="4"/>
<rect x="629.6" y="236.3" class="st3" width="20" height="4"/>
<path class="st2" d="M675.6,253.8h-12c-2.5,0-4.5-2-4.5-4.5v-49c0-2.5,2-4.5,4.5-4.5h12c2.5,0,4.5,2,4.5,4.5v49
	C680.1,251.7,678.1,253.7,675.6,253.8z"/>
<rect x="659.6" y="205.3" class="st3" width="20" height="4"/>
<rect x="659.6" y="236.3" class="st3" width="20" height="4"/>
<path class="st2" d="M705.6,253.8h-12c-2.5,0-4.5-2-4.5-4.5v-49c0-2.5,2-4.5,4.5-4.5h12c2.5,0,4.5,2,4.5,4.5v49
	C710.1,251.7,708.1,253.7,705.6,253.8z"/>
<rect x="689.6" y="205.3" class="st3" width="20" height="4"/>
<rect x="689.6" y="236.3" class="st3" width="20" height="4"/>
<path class="st2" d="M738.6,91.8h-12c-2.5,0-4.5-2-4.5-4.5v-49c0-2.5,2-4.5,4.5-4.5h12c2.5,0,4.5,2,4.5,4.5v49
	C743.1,89.7,741.1,91.7,738.6,91.8z"/>
<rect x="722.6" y="43.3" class="st3" width="20" height="4"/>
<rect x="722.6" y="74.3" class="st3" width="20" height="4"/>
<path class="st2" d="M768.6,91.8h-12c-2.5,0-4.5-2-4.5-4.5v-49c0-2.5,2-4.5,4.5-4.5h12c2.5,0,4.5,2,4.5,4.5v49
	C773.1,89.7,771.1,91.7,768.6,91.8z"/>
<rect x="752.6" y="43.3" class="st3" width="20" height="4"/>
<rect x="752.6" y="74.3" class="st3" width="20" height="4"/>
<path class="st2" d="M798.6,91.8h-12c-2.5,0-4.5-2-4.5-4.5v-49c0-2.5,2-4.5,4.5-4.5h12c2.5,0,4.5,2,4.5,4.5v49
	C803.1,89.7,801.1,91.7,798.6,91.8z"/>
<rect x="782.6" y="43.3" class="st3" width="20" height="4"/>
<rect x="782.6" y="74.3" class="st3" width="20" height="4"/>
<path class="st2" d="M828.6,91.8h-12c-2.5,0-4.5-2-4.5-4.5v-49c0-2.5,2-4.5,4.5-4.5h12c2.5,0,4.5,2,4.5,4.5v49
	C833.1,89.7,831.1,91.7,828.6,91.8z"/>
<rect x="812.6" y="43.3" class="st3" width="20" height="4"/>
<rect x="812.6" y="74.3" class="st3" width="20" height="4"/>
<path class="st3" d="M873.5,93.3h-285c-0.6,0-1-0.4-1-1s0.4-1,1-1h285c0.6,0,1,0.4,1,1S874.1,93.3,873.5,93.3z"/>
<path class="st3" d="M873.5,174.3h-285c-0.6,0-1-0.4-1-1s0.4-1,1-1h285c0.6,0,1,0.4,1,1S874.1,174.3,873.5,174.3z"/>
<path class="st3" d="M873.5,255.3h-285c-0.6,0-1-0.4-1-1s0.4-1,1-1h285c0.6,0,1,0.4,1,1S874.1,255.3,873.5,255.3z"/>
<path class="st3" d="M523.3,416.2c0-7.7-29.1-14-65-14s-65,6.3-65,14c0,5,12,9.3,30,11.8v76.7c0,3.6,2.9,6.5,6.5,6.5
	s6.5-2.9,6.5-6.5v-75.3c6.9,0.5,14.3,0.8,22,0.8s15.1-0.3,22-0.8v75.3c0,3.6,2.9,6.5,6.5,6.5s6.5-2.9,6.5-6.5v-76.7
	C511.3,425.5,523.3,421.1,523.3,416.2z"/>
<polygon class="st4" points="510.8,498.6 523,498.6 528.9,451.3 510.8,451.3 "/>
<path class="st0" d="M546.7,510l-38.5,0l0,0l0-14.9l0,0l23.6,0C540,495.1,546.7,501.7,546.7,510L546.7,510L546.7,510z"/>
<polygon class="st4" points="529.9,491.7 541.6,488.1 533,441.2 515.8,446.6 "/>
<path class="st0" d="M567.6,491.8l-36.8,11.5l0,0l-4.5-14.2l0,0l22.6-7.1C556.8,479.6,565.1,484,567.6,491.8L567.6,491.8
	L567.6,491.8z"/>
<path class="st0" d="M521.7,470l-22.4-58.9c-5,1.2-47.2,10.5-61.4-4.5c-4.8-5.2-5.8-12.6-2.8-22.2l8.2-10.4l0.3,0
	c3.1,0.2,76.4,4.3,81.5,26.4c4.2,18.6,12,53.4,14.2,63.6c0.5,2.2-0.7,4.4-2.8,5.2l-9,3.4c-0.5,0.2-1,0.3-1.6,0.3
	C524.1,472.9,522.4,471.7,521.7,470z"/>
<path class="st0" d="M508.7,477l-22.4-58.9c-5,1.2-47.2,10.5-61.4-4.5c-4.8-5.2-5.8-12.6-2.8-22.2l8.2-10.4l0.3,0
	c3.1,0.2,76.4,4.3,81.5,26.4c4.2,18.6,12,53.4,14.2,63.6c0.5,2.2-0.7,4.4-2.8,5.2l-9,3.4c-0.5,0.2-1,0.3-1.6,0.3
	C511.1,479.9,509.4,478.7,508.7,477z"/>
<path class="st4" d="M539,335.8c-0.3,0.4-0.6,0.9-0.9,1.4l-49.3,5.2l-7.1-9.7l-16.1,8.8l13.9,23.6l60.5-15.4c4.2,4,10.8,4,14.8-0.2
	c4-4.2,4-10.8-0.2-14.8s-10.8-4-14.8,0.2C539.6,335.2,539.3,335.5,539,335.8L539,335.8z"/>
<path class="st5" d="M421.8,394.5c-1.4-1-2.1-2.7-1.8-4.3c2.8-18.3-0.4-44.6-3.6-63.4c-2.3-13.5,6.8-26.3,20.3-28.6
	c2.4-0.4,4.9-0.5,7.3-0.2c3.3,0.4,6.7,1.1,9.9,2l0,0c11.2,2.8,18.9,13,18.6,24.5c-0.5,18.2,3.2,40.8,4.8,49.7
	c0.2,1.2-0.1,2.5-0.8,3.5c-0.7,1-1.9,1.6-3.1,1.8c-17.8,1.8-37,10.5-46.9,15.5c-0.6,0.3-1.3,0.5-2,0.5
	C423.5,395.3,422.6,395,421.8,394.5z"/>
<path class="st5" d="M469.9,347.2c-1.1-0.4-2-1.3-2.5-2.4l-9.9-22.9c-2.5-5.8,0.2-12.6,6-15.1c5.8-2.5,12.6,0.2,15.1,6l9.9,22.9
	c1,2.3-0.1,4.9-2.3,5.9l-12.8,5.6C472.2,347.6,471,347.6,469.9,347.2L469.9,347.2z"/>
<path class="st4" d="M492,333.8c-0.3,0.4-0.6,0.9-0.9,1.4l-49.3,5.2l-7.1-9.7l-16.1,8.8l13.9,23.6l60.5-15.4c4.2,4,10.8,4,14.8-0.2
	c4-4.2,4-10.8-0.2-14.8s-10.8-4-14.8,0.2C492.6,333.2,492.3,333.5,492,333.8L492,333.8z"/>
<path class="st5" d="M422.9,348.2c-1.1-0.4-2-1.3-2.5-2.4l-9.9-22.9c-2.5-5.8,0.1-12.6,6-15.1c5.8-2.5,12.6,0.1,15.1,6c0,0,0,0,0,0
	l9.9,22.9c1,2.3-0.1,4.9-2.3,5.9l-12.8,5.6C425.2,348.6,424,348.6,422.9,348.2L422.9,348.2z"/>
<circle class="st4" cx="442.1" cy="265.6" r="24.6"/>
<path class="st6" d="M330.8,341.5c1.2-13.3,4.6-26.3,10.1-38.5c1.5-3.4,3.2-6.7,5-10c0.2-0.4,0.1-0.8-0.3-1c-0.3-0.2-0.8-0.1-1,0.3
	c-6.6,11.8-11.3,24.7-13.8,38c-0.7,3.7-1.2,7.5-1.6,11.2C329.2,342.5,330.7,342.5,330.8,341.5z"/>
<circle class="st5" cx="349.5" cy="286" r="9.4"/>
<path class="st6" d="M331.7,341.8c0.8-8.6,3-17.1,6.6-25c1-2.2,2.1-4.4,3.3-6.5c0.1-0.2,0-0.5-0.2-0.7c-0.2-0.1-0.5,0-0.6,0.2
	c-4.3,7.7-7.3,16-8.9,24.6c-0.4,2.4-0.8,4.8-1,7.3C330.7,342.4,331.7,342.4,331.7,341.8z"/>
<circle class="st5" cx="343.9" cy="305.8" r="6.1"/>
<path class="st6" d="M330.5,341.2c-4.7-7.3-8.1-15.3-10.2-23.7c-0.6-2.3-1-4.7-1.4-7.1c0-0.3-0.3-0.4-0.6-0.4
	c-0.3,0-0.4,0.3-0.4,0.5c1.3,8.7,4.1,17.1,8.1,24.9c1.1,2.2,2.4,4.3,3.7,6.4C330.1,342.3,330.9,341.7,330.5,341.2L330.5,341.2z"/>
<ellipse transform="matrix(0.9951 -9.853768e-02 9.853768e-02 0.9951 -28.5416 32.8166)" class="st5" cx="318" cy="305.4" rx="6.1" ry="6.1"/>
<path class="st3" d="M311.8,346.6v-12c0-2.5,2-4.5,4.5-4.5h28c2.5,0,4.5,2,4.5,4.5v12c0,2.5-2,4.5-4.5,4.5h-28
	C313.8,351.1,311.8,349.1,311.8,346.6z"/>
<path class="st3" d="M483.8,343.2h79c1.9,0,3.5,1.6,3.5,3.5l0,0c0,1.9-1.6,3.5-3.5,3.5h-79c-1.9,0-3.5-1.6-3.5-3.5l0,0
	C480.3,344.7,481.9,343.2,483.8,343.2z"/>
<path class="st3" d="M615.8,350.2h-89c-3.6,0-6.5-2.9-6.5-6.5v-49c0-3.6,2.9-6.5,6.5-6.5h89c3.6,0,6.5,2.9,6.5,6.5v49
	C622.3,347.2,619.4,350.1,615.8,350.2z"/>
<circle class="st7" cx="571.3" cy="319.2" r="6"/>
<path class="st3" d="M842.3,416.2c0-7.7-29.1-14-65-14s-65,6.3-65,14c0,5,12,9.3,30,11.8v76.7c0,3.6,2.9,6.5,6.5,6.5
	s6.5-2.9,6.5-6.5v-75.3c6.9,0.5,14.3,0.8,22,0.8s15.1-0.3,22-0.8v75.3c0,3.6,2.9,6.5,6.5,6.5s6.5-2.9,6.5-6.5v-76.7
	C830.3,425.5,842.3,421.1,842.3,416.2z"/>
<circle class="st0" cx="784.5" cy="260" r="28"/>
<polygon class="st8" points="714.8,499.6 702.5,499.6 696.7,452.3 714.8,452.3 "/>
<path class="st0" d="M693.8,496.1h23.6l0,0V511l0,0h-38.5l0,0l0,0C678.9,502.7,685.6,496.1,693.8,496.1
	C693.8,496.1,693.8,496.1,693.8,496.1z"/>
<polygon class="st8" points="695.7,492.7 684,489.1 692.6,442.2 709.8,447.6 "/>
<path class="st0" d="M676.7,483.1l22.6,7.1l0,0l-4.5,14.2l0,0L658,492.8l0,0l0,0C660.5,485,668.8,480.6,676.7,483.1z"/>
<path class="st0" d="M699.6,473.9c-0.5,0-1.1-0.1-1.6-0.3l-9-3.4c-2.1-0.8-3.3-3-2.8-5.2c2.3-10.2,10-45,14.2-63.6
	c5-22.1,78.3-26.2,81.5-26.4l0.3,0l8.2,10.4c3,9.6,2,17.1-2.8,22.2c-14.1,15-56.3,5.7-61.4,4.5L703.9,471
	C703.2,472.7,701.5,473.9,699.6,473.9z"/>
<path class="st0" d="M712.6,480.9c-0.5,0-1.1-0.1-1.6-0.3l-9-3.4c-2.1-0.8-3.3-3-2.8-5.2c2.3-10.2,10-45,14.2-63.6
	c5-22.1,78.3-26.2,81.5-26.4l0.3,0l8.2,10.4c3,9.6,2,17.1-2.8,22.2c-14.1,15-56.3,5.7-61.4,4.5L716.9,478
	C716.2,479.7,714.5,480.9,712.6,480.9z"/>
<path class="st8" d="M686.5,336.8c0.3,0.4,0.6,0.9,0.9,1.4l49.3,5.2l7.1-9.7l16.1,8.8L746,366.1l-60.5-15.4c-4.2,4-10.8,4-14.8-0.2
	s-4-10.8,0.2-14.8s10.8-4,14.8,0.2C686,336.2,686.3,336.5,686.5,336.8L686.5,336.8z"/>
<path class="st5" d="M801.2,396.3c-0.7,0-1.4-0.2-2-0.5c-9.9-5-29.1-13.7-46.9-15.5c-1.2-0.1-2.4-0.8-3.1-1.8
	c-0.8-1-1.1-2.3-0.8-3.5c1.6-8.9,5.3-31.5,4.8-49.7c-0.3-11.5,7.4-21.7,18.6-24.5l0,0c3.3-0.9,6.6-1.5,9.9-2
	c13.6-1.7,26,7.9,27.7,21.5c0.3,2.4,0.3,4.9-0.2,7.3c-3.2,18.8-6.4,45.1-3.6,63.4c0.3,1.7-0.4,3.4-1.8,4.3
	C803,396,802.1,396.3,801.2,396.3z"/>
<path class="st5" d="M754,348.5c-0.6,0-1.2-0.1-1.8-0.4l-12.8-5.6c-2.3-1-3.3-3.6-2.3-5.9l9.9-22.9c2.5-5.8,9.3-8.5,15.1-6
	c5.8,2.5,8.5,9.3,6,15.1c0,0,0,0,0,0l-9.9,22.9C757.5,347.4,755.8,348.5,754,348.5L754,348.5z"/>
<circle class="st8" cx="783.5" cy="266.6" r="24.6"/>
<path class="st0" d="M758.4,254.5c11.6,7.1,24.7,11.4,38.3,12.6l-4-4.8c2.9,1.1,6,1.7,9.2,1.8c3.1,0,6.4-1.3,8.2-3.8
	c1.6-2.6,1.8-5.8,0.6-8.6c-1.2-2.8-3.1-5.2-5.6-7c-8.7-6.9-20.3-9-30.8-5.5c-3.6,1.1-6.8,3.1-9.2,5.9c-2.3,2.9-6.8,5.4-5.6,8.9
	L758.4,254.5z"/>
<path class="st0" d="M787.6,234.7c-7.7-7.9-17.1-13.9-27.5-17.8c-6.6-2.5-13.9-4-20.8-2.6s-13.5,6.2-15.4,13
	c-1.6,5.6,0.1,11.6,2.5,16.8s5.7,10.1,7.7,15.5c6.7,18.4-2.7,38.8-21.1,45.5c-4.7,1.7-9.6,2.4-14.5,2.1c6.8,0.9,13.1,4.1,19.8,5.8
	s14.5,1.6,19.5-3.2c5.2-5.1,5.3-13.3,5.1-20.5l-1.1-32.4c-0.2-5.5-0.4-11.2,1.6-16.4s6.7-9.7,12.2-9.6c4.2,0,7.9,2.6,11.2,5.1
	s6.9,5.2,11.1,5.5s8.9-2.7,8.6-6.9"/>
<polygon class="st1" points="673.4,318.8 730,320.1 738.2,380.5 685.9,381.7 "/>
<path class="st8" d="M733.5,334.8c0.3,0.4,0.6,0.9,0.9,1.4l49.3,5.2l7.1-9.7l16.1,8.8L793,364.1l-60.5-15.4c-4.2,4-10.8,4-14.8-0.2
	s-4-10.8,0.2-14.8s10.8-4,14.8,0.2C733,334.2,733.3,334.5,733.5,334.8L733.5,334.8z"/>
<path class="st5" d="M801,349.5c-0.6,0-1.2-0.1-1.8-0.4l-12.8-5.6c-2.3-1-3.3-3.6-2.3-5.9l9.9-22.9c2.5-5.8,9.3-8.5,15.1-6
	c5.8,2.5,8.5,9.3,6,15.1c0,0,0,0,0,0l-9.9,22.9C804.5,348.4,802.8,349.5,801,349.5L801,349.5z"/>
<path class="st6" d="M684.8,349.2h-398c-3.6,0-6.5,2.9-6.5,6.5s2.9,6.5,6.5,6.5h11.5v141.5c0,3.6,2.9,6.5,6.5,6.5s6.5-2.9,6.5-6.5
	v-129l72.9,132.1c1.8,3.1,5.8,4.2,8.9,2.4c3.1-1.8,4.2-5.8,2.4-8.9l-76.2-138.1h348v0.1l-76.1,138c-1.8,3.1-0.7,7.1,2.4,8.9
	s7.1,0.7,8.9-2.4l0,0l64.9-117.6v114.5c0,3.6,2.9,6.5,6.5,6.5s6.5-2.9,6.5-6.5V365.6l1.9-3.4h2.6c3.6,0,6.5-2.9,6.5-6.5
	S688.4,349.2,684.8,349.2L684.8,349.2z"/>
<circle class="st5" cx="571.3" cy="319.2" r="9.2"/>
<path class="st7" d="M570.2,312.8c-2.4,0.5-4.1,2.6-4.1,5.1c0,1.4,0.5,2.7,1.4,3.6l3.7,3.7l3.7-3.8c0.9-0.9,1.4-2.2,1.4-3.6
	c0-2.7-2.1-5-4.8-5.2v2l0,0l0,0v1l0.6-0.9c1.2,0.4,2.1,1.6,2.1,2.9c0,0.8-0.3,1.6-0.9,2.1l0,0l-2.3,2.3l-2.3-2.3l0,0
	c-0.5-0.5-0.9-1.3-0.9-2.1c0-1.6,1.2-2.9,2.8-3.1v-2.1l0,0v-1L570.2,312.8L570.2,312.8z"/>
<path class="st0" d="M471.3,253.7c-7.7-7.9-17.1-13.9-27.5-17.8c-6.6-2.5-13.9-4-20.8-2.6s-13.5,6.2-15.4,13
	c-1.6,5.6,2.5,11,2.5,16.8c0,5.1-10.5,31.1-4.3,39.7c2.3,3.2,2.3,8.9,1.5,12.7c-0.2,0.9,5.7-3,0.3,7c-0.3,0.5-0.3,1.2-0.1,1.7
	c3.3,8-6-4.2-5.7,7.8c4.9,0,2-8.6,0,0c-1.6,6.7,14.5,1.6,19.5-3.2c5.2-5.1,5.3-13.3,5.1-20.5l-1.1-32.4c-0.2-6.4-0.4-13,2.7-18.7
	c1.4-2.6,3.6-4.8,6.3-6.1c6.3-3,11.5,0.5,16.1,3.9c3.4,2.5,6.9,5.2,11.1,5.5s8.9-2.7,8.6-6.9"/>
<path class="st0" d="M413.1,256.4c11.6,7.1,24.7,11.4,38.3,12.6l-4-4.8c2.9,1.1,6,1.7,9.2,1.8c3.1,0,6.4-1.3,8.2-3.8
	c1.6-2.6,1.8-5.8,0.6-8.6c-1.2-2.8-3.1-5.2-5.6-7c-8.7-6.9-20.3-9-30.8-5.5c-3.6,1.1-6.8,3.1-9.2,5.9c-2.3,2.9-6.8,5.4-5.6,8.9
	L413.1,256.4z"/>
</svg>
