<?xml version="1.0" encoding="utf-8"?>
<!-- Generator: Adobe Illustrator 22.0.0, SVG Export Plug-In . SVG Version: 6.00 Build 0)  -->
<svg version="1.1" id="Layer_1" xmlns="http://www.w3.org/2000/svg" xmlns:xlink="http://www.w3.org/1999/xlink" x="0px" y="0px"
	 viewBox="0 0 906 510.5" style="enable-background:new 0 0 906 510.5;" xml:space="preserve">
<style type="text/css">
	.st0{fill:#F2F2F2;}
	.st1{fill:#CACACA;}
	.st2{fill:#3F3D56;}
	.st3{fill:#6E00B3;}
	.st4{fill:#FFB8B8;}
	.st5{fill:#2F2E41;}
	.st6{fill:#E6E6E6;}
	.st7{fill:#FFFFFF;}
</style>
<g>
	<path class="st0" d="M807.4,413.3c0,1.8,0,3.8,0,5.7c0,1.3,0,2.6-0.1,3.7c0,0.4,0,0.7,0,1c0,0.7,0,1.4-0.1,2
		c-0.1,4.4-0.6,8.8-1,13.2c0,0.1,0,0.4,0,0.6c0,0.4-0.1,0.9-0.1,1.3c-0.1,1.3-0.3,2.6-0.4,3.8c-0.1,0.9-0.1,1.7-0.3,2.6
		c0,0.4-0.1,0.9-0.1,1.3c0,0.4-0.1,0.9-0.1,1.3c0,0.1,0,0.4-0.1,0.6c-0.1,0.7-0.1,1.3-0.3,2c-0.1,0.9-0.3,1.7-0.4,2.6
		c-0.1,0.9-0.3,1.7-0.4,2.6c-0.1,0.9-0.3,1.7-0.4,2.6c-0.1,0.9-0.3,1.7-0.4,2.6c-0.9,4.3-1.7,8.4-2.8,12.5c-0.4,1.6-0.9,3.3-1.3,4.8
		c-0.7,2.6-1.4,5.2-2.3,7.8c-0.3,0.7-0.4,1.4-0.7,2.1c-0.3,0.9-0.6,1.6-0.7,2.4c-0.3,0.9-0.6,1.6-0.9,2.4c-0.3,0.9-0.6,1.6-0.9,2.4
		c-0.3,0.9-0.6,1.6-0.9,2.4c-0.3,0.9-0.6,1.6-0.9,2.4c-0.3,0.9-0.6,1.6-0.9,2.4c-0.6,1.6-1.3,3.1-1.8,4.7c-0.3,0.9-0.6,1.6-1,2.3
		c-1.3,3.1-2.7,6.2-4,9.2c-0.3,0.7-0.6,1.4-1,2c-0.1,0.4-0.4,0.9-0.6,1.3c-0.4,0.7-0.7,1.4-1,2.1c-0.4,0.7-0.7,1.4-1.1,2.3
		c-0.7,1.4-1.6,3-2.3,4.4s-1.6,3-2.4,4.4c-0.9,1.4-1.6,2.8-2.4,4.3c-0.4,0.7-0.9,1.4-1.3,2.1c-1.7,2.8-3.4,5.7-5.1,8.4
		c-1.7,2.7-3.5,5.5-5.5,8.1c-1,1.3-1.8,2.7-2.8,4c-0.4,0.6-0.7,1-1.1,1.6c-0.4,0.7-1,1.3-1.4,2c-85.1,113.1-245.8,136-359,50.9
		c-3.5-2.7-6.9-5.4-10.3-8.2c-2.8-2.4-5.5-4.8-8.4-7.2c-17.4-15.9-32.6-34-45.1-54c-1.6-2.6-3.1-5-4.5-7.5
		c-22.5-39-34.3-83.2-34.3-128.2c0-141.6,114.8-256.6,256.6-256.6c86.6,0,167.4,43.7,214.8,116.1c0.4,0.7,0.9,1.3,1.3,2
		c23.1,36,36.9,77.4,39.8,120.2C807.3,401.1,807.4,407.2,807.4,413.3z"/>
	<path class="st1" d="M907.7,501.2H421.8c-0.7,0-1.3-0.6-1.3-1.4c0-0.7,0.6-1.3,1.3-1.3H906C906.5,499.5,907.1,500.4,907.7,501.2z"
		/>
	<ellipse class="st2" cx="536.2" cy="501.2" rx="14.5" ry="14.7"/>
	<ellipse class="st2" cx="464.4" cy="501.2" rx="14.5" ry="14.7"/>
	<path class="st3" d="M714.7,221.8c-12.6,5.8-24,15-33.9,27.9c-11.5,14.7-23.7,25.2-36.3,32.3c-0.6,0.3-1.1,0.7-1.7,1
		c-11.2,6.1-23.5,9.8-36.3,11.1c-3.8,0.4-7.7,0.6-11.5,0.6c-1.6,0-3.3,0-4.8-0.1c-3.8-0.1-7.5-0.6-11.2-1.1
		c-21.1-3-40.3-11.2-54.4-18.7c-19.4-10.6-40.4-18-62.2-21.8c-4-0.7-7.8-1.1-11.6-1.6c-1.6-0.1-3.3-0.3-4.8-0.4
		c-4-0.3-7.8-0.4-11.8-0.4c-2,0-4,0-6,0.1c-33.7,1.3-77.6,10.9-117,44.5c-0.6,0.4-1,0.9-1.6,1.3c-0.4,0.4-1,0.9-1.4,1.3
		c-6.2,5.5-12.1,11.5-17.6,17.7c-6.2,7.2-12.1,14.7-17.4,22.7c-6.2,9.4-13.6,17.9-22,25.5c-24.8,22.8-39,54.9-39.3,88.5v0.7
		c0,0.7,0,1.4,0,2.1h435.1c0.6-0.7,1-1.4,1.6-2.1c1.3-1.8,2.7-3.7,4-5.5c2.6-3.7,5.1-7.4,7.5-11.2c2.4-3.8,4.8-7.7,7.1-11.5
		c0.6-1,1.1-2,1.7-3c1.1-2,2.3-4,3.3-5.8c1-1.8,2.1-4,3.3-6c1-2,2.1-4,3.1-6c0.6-1,1-2,1.6-3c0.4-1,1-2,1.4-3
		c0.3-0.6,0.6-1.1,0.9-1.8c0.4-0.9,0.9-1.8,1.3-2.7c2-4.1,3.8-8.4,5.5-12.6c0.4-1,0.9-2.1,1.3-3.3c0.9-2.1,1.7-4.3,2.6-6.4
		c0.4-1.1,0.9-2.1,1.3-3.3c0.4-1.1,0.9-2.1,1.1-3.3c0.4-1.1,0.7-2.1,1.1-3.3s0.7-2.1,1.1-3.3s0.7-2.1,1.1-3.3c0.4-1.1,0.7-2.3,1-3.3
		c0.3-1,0.6-2,0.9-3c1.1-3.5,2.1-7.1,3-10.6c0.6-2.1,1.1-4.4,1.7-6.7c1.4-5.7,2.7-11.3,3.8-17.2c0.3-1.1,0.4-2.3,0.7-3.5
		c0.1-1.1,0.4-2.3,0.6-3.5c0.1-1.1,0.4-2.3,0.6-3.5c0.1-1.1,0.4-2.3,0.6-3.5c0.1-0.9,0.3-1.8,0.4-2.7c0-0.3,0.1-0.6,0.1-0.9
		c0.1-0.6,0.1-1.3,0.3-1.8c0.1-0.6,0.1-1.1,0.3-1.7c0.1-1.1,0.3-2.4,0.4-3.5c0.3-1.7,0.4-3.5,0.6-5.2l0,0c0-0.6,0.1-1.1,0.1-1.8
		c0-0.3,0-0.6,0.1-0.9c0.6-6,1-12.1,1.3-18.1c0-0.9,0.1-1.8,0.1-2.8c0-0.4,0-1,0-1.4c0-1.7,0.1-3.4,0.1-5.1c0-2.6,0.1-5.2,0.1-7.8
		C715.6,238.2,715.3,230,714.7,221.8z"/>
	<rect x="301.6" y="310.1" class="st2" width="4.8" height="141.1"/>
	<rect x="445.8" y="244.3" class="st2" width="4.8" height="206.8"/>
	<rect x="590.1" y="287.6" class="st2" width="4.8" height="163.6"/>
	<circle class="st2" cx="448.5" cy="247.6" r="14.7"/>
	<circle class="st2" cx="592.8" cy="288.5" r="14.7"/>
	<circle class="st2" cx="301.5" cy="298.3" r="14.7"/>
	<path class="st2" d="M851.4,452.9c-0.7,0.7-1.6,1.4-2.3,2.1c-1,0.9-2,1.8-3,2.7h-635v-4.8H851.4z"/>
	<rect x="303.3" y="295.1" class="st2" width="7.9" height="2.7"/>
	<path class="st2" d="M327.3,295.1v2.7h16v-2.7H327.3z M359.2,295.1v2.7h16v-2.7H359.2z M391.1,295.1v2.7h16v-2.7H391.1z
		 M423.1,295.1v2.7h16v-2.7H423.1z M455,295.1v2.7h16v-2.7H455z M487,295.1v2.7h16v-2.7H487z M518.9,295.1v2.7h16v-2.7H518.9z
		 M551,295.1v2.7h16v-2.7H551z M582.9,295.1v2.7h16v-2.7H582.9z M614.8,295.1v2.7h16v-2.7H614.8z M646.8,295.1v2.7h16v-2.7H646.8z
		 M678.7,295.1v2.7h16v-2.7H678.7z M710.8,295.1v2.7h1.1c0-0.3,0.1-0.6,0.1-0.9c0.1-0.6,0.1-1.3,0.3-1.8L710.8,295.1L710.8,295.1z"
		/>
	<rect x="440.4" y="242.3" class="st2" width="7.9" height="2.7"/>
	<path class="st2" d="M464.4,242.3v2.7h16v-2.7H464.4z M496.3,242.3v2.7h16v-2.7H496.3z M528.3,242.3v2.7h16v-2.7H528.3z
		 M560.2,242.3v2.7h16v-2.7H560.2z M592.2,242.3v2.7h16v-2.7H592.2z M624.1,242.3v2.7h16v-2.7H624.1z M656.2,242.3v2.7h16v-2.7
		H656.2z M688.1,242.3v2.7h16v-2.7H688.1z"/>
	<rect x="586.8" y="281.9" class="st2" width="7.9" height="2.7"/>
	<path class="st2" d="M610.8,281.9v2.7h16v-2.7H610.8z M642.7,281.9v2.7h16v-2.7H642.7z M674.7,281.9v2.7h16v-2.7H674.7z
		 M706.6,281.9v2.7h6.9c0-0.6,0.1-1.1,0.1-1.8c0-0.3,0-0.6,0.1-0.9L706.6,281.9L706.6,281.9z"/>
	<ellipse class="st2" cx="211.1" cy="431.5" rx="14.5" ry="14.7"/>
	<path class="st3" d="M204.6,300.6c-15.7,3.1-27.4,17.2-27.4,33.7c0,9.2,3.7,17.7,9.6,23.8l24.8,24.8l24.8-25
		c6-6.2,9.6-14.6,9.6-23.8c0-18.1-14.2-33-32-34.3v13.5l0,0l0,0v6.9l4.1-6.1c8.4,2.7,14.2,10.3,14.2,19.6c0,5.5-2.3,10.5-5.8,14.2
		l0,0l-14.9,15l-14.9-14.9l0,0c-3.5-3.7-5.8-8.6-5.8-14.2c0-10.5,8.1-19.3,18.3-20.4v-13.6l0,0v-6.4L204.6,300.6L204.6,300.6z"/>
	<rect x="208.7" y="421.1" class="st2" width="4.8" height="36.6"/>
</g>
<polygon class="st4" points="841.9,464.3 827.4,464.3 832.1,502.3 841.9,502.3 "/>
<path class="st5" d="M812.7,511.4v0.4h31.7v-12.7h-2.8l-10.5-4.3l-0.3-0.1l-5.8,4.4c-1.6,0-3.2,0.3-4.7,0.9s-2.9,1.5-4,2.7
	C814,505,812.7,508.1,812.7,511.4z"/>
<polygon class="st4" points="796.2,464.3 781.7,464.3 786.4,502.3 796.2,502.3 "/>
<path class="st5" d="M767,511.4v0.4h31.7v-12.7h-2.8l-10.5-4.3l-0.3-0.1l-5.8,4.4c-1.6,0-3.2,0.3-4.7,0.9s-2.9,1.5-4,2.7
	C768.3,505,767,508.1,767,511.4z"/>
<path class="st5" d="M783,318.2l-2.6,9.7v2.7c0.4,1,0.6,2,0.6,3c0,2-0.7,69.9-0.7,69.9l-3.4,64.3c0,0,0,3.6-0.7,4.2
	c-0.7,0.7,0,1.3,1.6,4.6s1.7,2.7,0.4,4.8c-1.3,2,1.3,7.7,1.3,7.7l20.2-0.3l-0.7-3.4c-0.7-3.4,0,0,2-2s-0.7-1.3-1.3-4
	c-0.7-2.7-0.7-2,0.7-3.4c1.3-1.3,1.3-59.1,1.3-59.1l19.5-65.8l8.1,67.2c0,0-4,51.7-4,53.1c-0.1,1.4-0.4,2.8-0.8,4.2
	c0,0-1.2,1.2-1.2,1.9c0,0.7,1.3,4.7,1.3,5.4s1.2,7.4,1.2,7.4H842c1-1.4,2.2-2.7,3.4-4c1.3-1.3,0,0-1.3-3.4s0-2,1.3-3.4
	c1.3-1.3,6-67.9,6-67.9l6.7-38.3c0,0-2-4.7-2.9-5.6s6.2-8.5,4.9-13.2s0-4.7,2.7-7.4c2.7-2.7,1.3-12.8,1.3-12.8l1.3-37.6l-77.3-2
	L783,318.2z"/>
<path class="st4" d="M700.9,148.1c-1.2-3.3,0-6.9,2.9-8.9c3.5-2.3,8.2-1.4,10.5,2.1l32.8,25.1l-1.8,13.7L711.8,152
	c-0.4,0.2-0.8,0.4-1.2,0.6C706.6,154.1,702.3,152,700.9,148.1L700.9,148.1z"/>
<circle class="st4" cx="848.8" cy="138.9" r="20.8"/>
<path class="st5" d="M828.7,130.2c0,0,2-4.5,5.9-5.8c0,0.8,0.2,1.5,0.5,2.2c1.2,2.5,4.1,3.8,6.9,3.9c2.4-0.1,4.7-0.6,6.9-1.6
	c0.1,0,0.3,0.1,0.4,0.1l-5.5,4.2l13.3-1.7l-5.3,2.9c3.2,1.5,6.9,0.7,10.3-0.7l-3.2,18.3c0,0,3.4-2.7,5.4,0.2s13.7-18.2,6.5-24.9
	c0,0-2.3-15.7-15.5-16.1s-21.5,2.3-23.4,7C830.5,122.1,829.4,126.1,828.7,130.2z"/>
<path class="st2" d="M824.4,172.6l-6.7,2.9c-2.1,0-3.9-1.2-4.8-3.1c-1.6-3.2-7,0-7,0s-16.7-1.3-22.9,1.9c0,0-10-4.2-11.4-4.5
	s-3.5-1.4-4.5-1.1c-1,0.3-2.2-1.9-2.9-1.7s-1-1.4-3.2-2c-2.3-0.6-3.1,0.1-5.6-2.4s-14.7-6-14.7-6l-1.6,0.5l-2.7-1c0,0-6.2,11.7-8,11
	l3.8,7.6c4.2,3.9,9.1,7,14.4,9.1c9.3,3.8,8.6,4.9,8.6,4.9s28.1,14.3,32.5,14.1s11,25.6,9.1,30.4s-4.8,39.4-4.8,39.4
	s-2.8,7.3,0.1,12.4c0,0-6.7,14.1-7.4,16c0,0,50.4,5.4,64.7-1c0,0,20.7,0.8,18.6-2.1s2-9.5,2-9.5l-9.6-44.3l21.9-22.1
	c0,0,3.4-18.4-11.7-30.2l-10-8.9c0,0-5.6-4.8-7.2-5.1s-1,0-1,0s8-12.7-5.4-14.9c-7.2-1.2-10.2-1.9-14.9-1.9
	C832.1,159.2,824.8,174,824.4,172.6z"/>
<path class="st6" d="M761.8,330v-60.2c0-2.5,2-4.6,4.6-4.6h45.3c2.5,0,4.6,2.1,4.6,4.6V330c0,2.5-2,4.6-4.6,4.6h-45.3
	C763.8,334.6,761.8,332.5,761.8,330z"/>
<path class="st7" d="M765.2,311.8v-38.7c0-2.4,1.9-4.3,4.3-4.3h38.9c2.4,0,4.3,1.9,4.3,4.3v53.5c0,2.4-1.9,4.3-4.3,4.3h-24.1
	C773.8,330.9,765.3,322.4,765.2,311.8z"/>
<path class="st6" d="M771.5,283.9c0-2.3,1.9-4.2,4.2-4.2h27c2.3,0,4.2,1.9,4.2,4.2s-1.9,4.2-4.2,4.2l0,0h-27
	C773.4,288.1,771.5,286.2,771.5,283.9z"/>
<path class="st6" d="M771.5,297c0-2.3,1.9-4.2,4.2-4.2h27c2.3,0,4.2,1.9,4.2,4.2c0,2.3-1.9,4.2-4.2,4.2l0,0h-27
	C773.4,301.2,771.5,299.3,771.5,297z"/>
<path class="st6" d="M771.5,310.1c0-2.3,1.9-4.2,4.2-4.2h27c2.3,0,4.2,1.9,4.2,4.2s-1.9,4.2-4.2,4.2l0,0h-27
	C773.4,314.3,771.5,312.4,771.5,310.1z"/>
<path class="st4" d="M816.7,310.3c-3.2,0-6-2.3-6.7-5.4c-0.9-3.8,1.5-7.5,5.3-8.4l35.8-21.5l11.3,6.1l-38.6,21.2
	c0.1,0.4,0.1,0.8,0.1,1.2C823.7,307.3,820.5,310.4,816.7,310.3L816.7,310.3z"/>
<path class="st2" d="M831.7,286.3l3.7-5.7l1-4.5l4.2-0.8l9.6-10l5.8-45.8c0.1-0.7,0.2-1.4,0.4-2c2.3-9.4,11.8-15.1,21.2-12.7l0,0
	c9,2.2,14.7,11.1,12.9,20.2l-18.1,53.4v0.1l-11.4,8l-3.3,1.7l-4.9,4.1l-13.7,2.4L831.7,286.3z"/>
</svg>
