<?xml version="1.0" encoding="utf-8"?>
<!-- Generator: Adobe Illustrator 22.0.0, SVG Export Plug-In . SVG Version: 6.00 Build 0)  -->
<svg version="1.1" id="Layer_1" xmlns="http://www.w3.org/2000/svg" xmlns:xlink="http://www.w3.org/1999/xlink" x="0px" y="0px"
	 viewBox="0 0 589 153" style="enable-background:new 0 0 589 153;" xml:space="preserve">
<style type="text/css">
	.st0{fill:none;}
	.st1{fill:#C5A131;}
	.st2{opacity:0.6;fill:url(#Flor);}
</style>
<pattern  y="153" width="98" height="87" patternUnits="userSpaceOnUse" id="Flor" viewBox="11 -98 98 87" style="overflow:visible;">
	<g>
		<rect x="11" y="-98" class="st0" width="98" height="87"/>
		<g>
			<rect x="11" y="-98" class="st0" width="98" height="87"/>
			<g>
				<rect x="11" y="-98" class="st0" width="98" height="87"/>
				<g>
					<path class="st1" d="M116.7-19.4c1.9-2,3-4.7,3-7.5c0-5.7-4.4-10.4-10.1-10.8h-0.1v6.9l1.4-2.2c2.5,0.9,4.2,3.2,4.2,5.9
						c0,1.6-0.6,3.2-1.7,4.3l-4.5,4.5l-4.4-4.4l0,0l-0.1-0.1c-1.1-1.2-1.7-2.7-1.7-4.3c0-3.2,2.4-5.9,5.5-6.2h0.1v-4.5l0,0V-40
						l-1.7,2.5c-5,1-8.6,5.5-8.6,10.6c0,2.8,1.1,5.5,3,7.5l7.8,7.8L116.7-19.4z M108-33.5c-3.2,0.4-5.7,3.2-5.7,6.5
						c0,1.6,0.6,3.2,1.7,4.4l0,0l4.8,4.8l4.7-4.7l0.1-0.1l0,0c1.1-1.2,1.7-2.8,1.7-4.4c0-2.8-1.8-5.3-4.5-6.2h-0.1l-1.1,1.6v-1.7
						h-0.1h0.1v-4c5.4,0.4,9.7,5,9.7,10.5c0,2.7-1,5.3-2.9,7.3l-7.6,7.6l-7.6-7.6c-1.9-2-2.9-4.6-2.9-7.3c0-5,3.5-9.3,8.4-10.3h0.1
						l1.2-1.8V-33.5z"/>
					<path class="st1" d="M100.5-3.1l7.8-7.8l-7.8-7.8c-2-1.9-4.7-3-7.5-3c-5.7,0-10.4,4.4-10.8,10.1v0.1h6.9l-2.2-1.4
						c0.9-2.5,3.2-4.2,5.9-4.2c1.6,0,3.2,0.6,4.3,1.7l4.5,4.5l-4.4,4.4l0,0l-0.1,0.1c-1.2,1.1-2.7,1.7-4.3,1.7
						c-3.2,0-5.9-2.4-6.2-5.5v-0.1h-6.7l2.5,1.7c1,5,5.5,8.6,10.6,8.6C95.8-0.1,98.5-1.2,100.5-3.1z M86.4-10
						c0.4,3.2,3.2,5.7,6.5,5.7c1.6,0,3.2-0.6,4.4-1.7l0,0l4.8-4.8l-4.7-4.7l-0.1-0.1l0,0c-1.2-1.1-2.8-1.7-4.4-1.7
						c-2.8,0-5.3,1.8-6.2,4.5v0.1l1.6,1.1h-1.7v0.1v-0.1h-4c0.4-5.4,5-9.7,10.5-9.7c2.7,0,5.3,1,7.3,2.9l7.6,7.6l-7.6,7.6
						c-2,1.9-4.6,2.9-7.3,2.9c-5,0-9.3-3.5-10.3-8.4v-0.1L81-10H86.4z"/>
				</g>
				<g>
					<path class="st1" d="M18.7-19.4c1.9-2,3-4.7,3-7.5c0-5.7-4.4-10.4-10.1-10.8h-0.1v6.9l1.4-2.2c2.5,0.9,4.2,3.2,4.2,5.9
						c0,1.6-0.6,3.2-1.7,4.3l-4.5,4.5l-4.4-4.4l0,0l-0.1-0.1c-1.1-1.2-1.7-2.7-1.7-4.3c0-3.2,2.4-5.9,5.5-6.2h0.1v-4.5l0,0V-40
						l-1.7,2.5C3.6-36.5,0-32,0-26.9c0,2.8,1.1,5.5,3,7.5l7.8,7.8L18.7-19.4z M10-33.5c-3.2,0.4-5.7,3.2-5.7,6.5
						c0,1.6,0.6,3.2,1.7,4.4l0,0l4.8,4.8l4.7-4.7l0.1-0.1l0,0c1.1-1.2,1.7-2.8,1.7-4.4c0-2.8-1.8-5.3-4.5-6.2h-0.1l-1.1,1.6v-1.7
						h-0.1h0.1v-4c5.4,0.4,9.7,5,9.7,10.5c0,2.7-1,5.3-2.9,7.3l-7.6,7.6l-7.6-7.6c-1.9-2-2.9-4.6-2.9-7.3c0-5,3.5-9.3,8.4-10.3h0.1
						l1.2-1.8V-33.5z"/>
					<path class="st1" d="M37.7-10.3L37.7-10.3l-6.9-0.1L33-9c-0.9,2.5-3.2,4.2-5.9,4.2c-1.6,0-3.2-0.6-4.3-1.7L18.3-11l4.4-4.4l0,0
						l0.1-0.1c1.2-1.1,2.7-1.7,4.3-1.7c3.2,0,5.9,2.4,6.2,5.5v0.1H40l-2.5-1.7c-1-5-5.5-8.6-10.6-8.6c-2.8,0-5.5,1.1-7.5,3l-7.8,7.8
						l7.8,7.8c2,1.9,4.7,3,7.5,3C32.6-0.2,37.3-4.6,37.7-10.3z M19.6-18.6c2-1.9,4.6-2.9,7.3-2.9c5,0,9.3,3.5,10.3,8.4v0.1l1.8,1.2
						h-5.6c-0.4-3.2-3.2-5.7-6.5-5.7c-1.6,0-3.2,0.6-4.4,1.7l0,0L17.7-11l4.7,4.7l0.1,0.1l0,0c1.2,1.1,2.8,1.7,4.4,1.7
						c2.8,0,5.3-1.8,6.2-4.5v-0.1l-1.6-1.1h1.7v-0.1v0.1h4c-0.4,5.4-5,9.7-10.5,9.7c-2.7,0-5.3-1-7.3-2.9L11.8-11L19.6-18.6z"/>
				</g>
				<g>
					<path class="st1" d="M67.7-62.9c1.9-2,3-4.7,3-7.5c0-5.7-4.4-10.4-10.1-10.8h-0.1v6.9l1.4-2.2c2.5,0.9,4.2,3.2,4.2,5.9
						c0,1.6-0.6,3.2-1.7,4.3l-4.5,4.5l-4.4-4.3l0,0l-0.1-0.1c-1.1-1.2-1.7-2.7-1.7-4.3c0-3.2,2.4-5.9,5.5-6.2h0.1v-4.5l0,0v-2.2
						l-1.7,2.5c-5,1-8.6,5.5-8.6,10.6c0,2.8,1.1,5.5,3,7.5l7.8,7.8L67.7-62.9z M59-77c-3.2,0.4-5.7,3.2-5.7,6.5
						c0,1.6,0.6,3.2,1.7,4.4l0,0l4.8,4.8l4.7-4.7l0.1-0.1l0,0c1.1-1.2,1.7-2.8,1.7-4.4c0-2.8-1.8-5.3-4.5-6.2h-0.1l-1.1,1.6v-1.7
						h-0.1h0.1v-4c5.4,0.4,9.7,5,9.7,10.5c0,2.7-1,5.3-2.9,7.3l-7.6,7.6l-7.5-7.7c-1.9-2-2.9-4.6-2.9-7.3c0-5,3.5-9.3,8.4-10.3h0.1
						l1.2-1.8L59-77z"/>
					<path class="st1" d="M51.5-46.6l7.8-7.8l-7.8-7.8c-2-1.9-4.7-3-7.5-3c-5.7,0-10.4,4.4-10.8,10.1v0.1h6.9l-2.2-1.4
						c0.9-2.5,3.2-4.2,5.9-4.2c1.6,0,3.2,0.6,4.3,1.7l4.5,4.5L48.2-50l0,0l-0.1,0.1c-1.2,1.1-2.7,1.7-4.3,1.7
						c-3.2,0-5.9-2.4-6.2-5.5v-0.1h-6.7l2.5,1.7c1,5,5.5,8.6,10.6,8.6C46.8-43.6,49.5-44.7,51.5-46.6z M37.4-53.5
						c0.4,3.2,3.2,5.7,6.5,5.7c1.6,0,3.2-0.6,4.4-1.7l0,0l4.8-4.8l-4.7-4.8l-0.1-0.1l0,0c-1.2-1.1-2.8-1.7-4.4-1.7
						c-2.8,0-5.3,1.8-6.2,4.5v0.1l1.6,1.1h-1.7v0.1v-0.1h-4c0.4-5.4,5-9.7,10.5-9.7c2.7,0,5.3,1,7.3,2.9l7.6,7.6l-7.6,7.6
						c-2,1.9-4.6,2.9-7.3,2.9c-5,0-9.3-3.5-10.3-8.4v-0.1L32-53.6L37.4-53.5z"/>
					<path class="st1" d="M62.2-27.9c5-1,8.6-5.5,8.6-10.6c0-2.8-1.1-5.5-3-7.5L60-53.8L52.2-46c-1.9,2-3,4.7-3,7.5
						c0,5.7,4.4,10.4,10.1,10.8h0.1v-6.9L58-32.4c-2.5-0.9-4.2-3.2-4.2-5.9c0-1.6,0.6-3.2,1.7-4.3l4.5-4.5l4.4,4.4l0,0l0.1,0.1
						c1.1,1.2,1.7,2.7,1.7,4.3c0,3.2-2.4,5.9-5.5,6.2h-0.1v4.5l0,0v2.2L62.2-27.9z M60.9-31.9c3.2-0.4,5.7-3.2,5.7-6.5
						c0-1.6-0.6-3.2-1.7-4.4l0,0l-4.8-4.8l-4.7,4.7l-0.1,0.1l0,0c-1.1,1.2-1.7,2.8-1.7,4.4c0,2.8,1.8,5.3,4.5,6.2h0.1l1.1-1.6v1.7
						h0.1h-0.1v4c-5.4-0.4-9.7-5-9.7-10.5c0-2.7,1-5.3,2.9-7.3l7.6-7.6l7.6,7.6c1.9,2,2.9,4.6,2.9,7.3c0,5-3.5,9.3-8.4,10.3h-0.1
						l-1.2,1.8v-1.6l0,0C60.9-28.1,60.9-31.9,60.9-31.9z"/>
					<path class="st1" d="M86.7-53.8L86.7-53.8l-6.9-0.1l2.2,1.4c-0.9,2.5-3.2,4.2-5.9,4.2c-1.6,0-3.2-0.6-4.3-1.7l-4.5-4.5l4.4-4.4
						l0,0l0.1-0.1c1.2-1.1,2.7-1.7,4.3-1.7c3.2,0,5.9,2.4,6.2,5.5v0.1H89l-2.5-1.7c-1-5-5.5-8.6-10.6-8.6c-2.8,0-5.5,1.1-7.5,3
						l-7.8,7.8l7.8,7.8c2,1.9,4.7,3,7.5,3C81.6-43.7,86.3-48.1,86.7-53.8z M68.6-62.1c2-1.9,4.6-2.9,7.3-2.9c5,0,9.3,3.5,10.3,8.4
						v0.1l1.8,1.2h-5.6C82-58.5,79.2-61,75.9-61c-1.6,0-3.2,0.6-4.4,1.7l0,0l-4.8,4.8l4.7,4.7l0.1,0.1l0,0c1.2,1.1,2.8,1.7,4.4,1.7
						c2.8,0,5.3-1.8,6.2-4.5v-0.1l-1.6-1.1h1.7v-0.1v0.1h4c-0.4,5.4-5,9.7-10.5,9.7c-2.7,0-5.3-1-7.3-2.9l-7.6-7.6L68.6-62.1z"/>
				</g>
				<g>
					<path class="st1" d="M100.5-90.1l7.8-7.8l-7.8-7.8c-2-1.9-4.7-3-7.5-3c-5.7,0-10.4,4.4-10.8,10.1v0.1h6.9l-2.2-1.4
						c0.9-2.5,3.2-4.2,5.9-4.2c1.6,0,3.2,0.6,4.3,1.7l4.5,4.5l-4.4,4.4l0,0l-0.1,0.1c-1.2,1.1-2.7,1.7-4.3,1.7
						c-3.2,0-5.9-2.4-6.2-5.5v-0.1h-6.7l2.5,1.7c1,5,5.5,8.6,10.6,8.6C95.8-87.1,98.5-88.2,100.5-90.1z M86.4-97
						c0.4,3.2,3.2,5.7,6.5,5.7c1.6,0,3.2-0.6,4.4-1.7l0,0l4.8-4.8l-4.7-4.7l-0.1-0.1l0,0c-1.2-1.1-2.8-1.7-4.4-1.7
						c-2.8,0-5.3,1.8-6.2,4.5v0.1l1.6,1.1h-1.7v0.1v-0.1h-4c0.4-5.4,5-9.7,10.5-9.7c2.7,0,5.3,1,7.3,2.9l7.6,7.6l-7.6,7.6
						c-2,1.9-4.6,2.9-7.3,2.9c-5,0-9.3-3.5-10.3-8.4v-0.1L81-97H86.4z"/>
					<path class="st1" d="M111.2-71.4c5-1,8.6-5.5,8.6-10.6c0-2.8-1.1-5.5-3-7.5l-7.8-7.8l-7.8,7.8c-1.9,2-3,4.7-3,7.5
						c0,5.7,4.4,10.4,10.1,10.8h0.1v-6.9l-1.4,2.2c-2.5-0.9-4.2-3.2-4.2-5.9c0-1.6,0.6-3.2,1.7-4.3l4.5-4.5l4.4,4.4l0,0l0.1,0.1
						c1.1,1.2,1.7,2.7,1.7,4.3c0,3.2-2.4,5.9-5.5,6.2h-0.1v4.5l0,0v2.2L111.2-71.4z M109.9-75.4c3.2-0.4,5.7-3.2,5.7-6.5
						c0-1.6-0.6-3.2-1.7-4.4l0,0l-4.8-4.8l-4.7,4.7l-0.1,0.1l0,0c-1.1,1.2-1.7,2.8-1.7,4.4c0,2.8,1.8,5.3,4.5,6.2h0.1l1.1-1.6v1.7
						h0.1h-0.1v4c-5.4-0.4-9.7-5-9.7-10.5c0-2.7,1-5.3,2.9-7.3l7.6-7.6l7.6,7.6c1.9,2,2.9,4.6,2.9,7.3c0,5-3.5,9.3-8.4,10.3h-0.1
						l-1.2,1.8v-1.6l0,0C109.9-71.6,109.9-75.4,109.9-75.4z"/>
				</g>
				<g>
					<path class="st1" d="M13.2-71.4c5-1,8.6-5.5,8.6-10.6c0-2.8-1.1-5.5-3-7.5L11-97.3l-7.8,7.8c-1.9,2-3,4.7-3,7.5
						c0,5.7,4.4,10.4,10.1,10.8h0.1v-6.9L9-75.9c-2.5-0.9-4.2-3.2-4.2-5.9c0-1.6,0.6-3.2,1.7-4.3l4.5-4.5l4.4,4.4l0,0l0.1,0.1
						c1.1,1.2,1.7,2.7,1.7,4.3c0,3.2-2.4,5.9-5.5,6.2h-0.1v4.5l0,0v2.2L13.2-71.4z M11.9-75.4c3.2-0.4,5.7-3.2,5.7-6.5
						c0-1.6-0.6-3.2-1.7-4.4l0,0L11-91.1l-4.7,4.7l-0.1,0.1l0,0c-1.1,1.2-1.7,2.8-1.7,4.4c0,2.8,1.8,5.3,4.5,6.2h0.1l1.1-1.6v1.7
						h0.1h-0.1v4c-5.4-0.4-9.7-5-9.7-10.5c0-2.7,1-5.3,2.9-7.3L11-97l7.6,7.6c1.9,2,2.9,4.6,2.9,7.3c0,5-3.5,9.3-8.4,10.3H13
						L11.8-70v-1.6l0,0L11.9-75.4L11.9-75.4z"/>
					<path class="st1" d="M37.7-97.3L37.7-97.3l-6.9-0.1L33-96c-0.9,2.5-3.2,4.2-5.9,4.2c-1.6,0-3.2-0.6-4.3-1.7L18.3-98l4.4-4.4
						l0,0l0.1-0.1c1.2-1.1,2.7-1.7,4.3-1.7c3.2,0,5.9,2.4,6.2,5.5v0.1H40l-2.5-1.7c-1-5-5.5-8.6-10.6-8.6c-2.8,0-5.5,1.1-7.5,3
						l-7.8,7.8l7.8,7.8c2,1.9,4.7,3,7.5,3C32.6-87.2,37.3-91.6,37.7-97.3z M19.6-105.6c2-1.9,4.6-2.9,7.3-2.9c5,0,9.3,3.5,10.3,8.4
						v0.1l1.8,1.2h-5.6c-0.4-3.2-3.2-5.7-6.5-5.7c-1.6,0-3.2,0.6-4.4,1.7l0,0L17.7-98l4.7,4.7l0.1,0.1l0,0c1.2,1.1,2.8,1.7,4.4,1.7
						c2.8,0,5.3-1.8,6.2-4.5v-0.1l-1.6-1.1h1.7v-0.1v0.1h4c-0.4,5.4-5,9.7-10.5,9.7c-2.7,0-5.3-1-7.3-2.9L11.8-98L19.6-105.6z"/>
				</g>
			</g>
		</g>
	</g>
</pattern>
<rect class="st2" width="589" height="153"/>
</svg>
